<svg width="48" height="48" viewBox="0 0 48 48" fill="none" xmlns="http://www.w3.org/2000/svg">
<path d="M30.225 25.5379L30.9479 21.1981H26.3766V18.3694C26.345 18.0458 26.3935 17.7199 26.5185 17.4157C26.6436 17.1115 26.842 16.8368 27.0991 16.6118C27.3562 16.3868 27.6655 16.2173 28.0042 16.1157C28.3428 16.0142 28.7021 15.9832 29.0556 16.0251H31.1818V12.3246C29.9592 12.1349 28.7223 12.0313 27.4822 12.0146C26.6351 11.9572 25.7845 12.0693 24.9899 12.3431C24.1953 12.6169 23.4761 13.0457 22.8826 13.5994C22.289 14.1532 21.8356 14.8185 21.554 15.5488C21.2724 16.279 21.1695 17.0566 21.2524 17.8269V21.1399H17V25.4798H21.2524V36H26.4191V25.4798L30.225 25.5379Z" fill="#C92F23"/>
</svg>
