<svg width="48" height="48" viewBox="0 0 48 48" fill="none" xmlns="http://www.w3.org/2000/svg">
<path d="M30.6141 16.2938C30.3339 16.2899 30.0588 16.3694 29.8239 16.5222C29.5891 16.675 29.405 16.8941 29.2951 17.1517C29.1852 17.4093 29.1544 17.6937 29.2067 17.9688C29.259 18.2439 29.392 18.4973 29.5888 18.6967C29.7856 18.896 30.0373 19.0324 30.3119 19.0885C30.5865 19.1445 30.8716 19.1177 31.1309 19.0114C31.3902 18.9052 31.612 18.7243 31.7681 18.4918C31.9242 18.2592 32.0076 17.9855 32.0077 17.7055C32.0102 17.521 31.9761 17.3379 31.9072 17.1667C31.8383 16.9956 31.736 16.8398 31.6064 16.7084C31.4767 16.5771 31.3223 16.4728 31.1519 16.4016C30.9816 16.3304 30.7988 16.2937 30.6141 16.2938V16.2938Z" fill="#C92F23"/>
<path d="M24.3428 18.0921C23.1714 18.0921 22.0263 18.4392 21.0523 19.0895C20.0784 19.7397 19.3193 20.664 18.871 21.7454C18.4227 22.8267 18.3054 24.0166 18.534 25.1646C18.7625 26.3125 19.3266 27.367 20.1549 28.1946C20.9832 29.0223 22.0385 29.5859 23.1874 29.8143C24.3362 30.0426 25.5271 29.9254 26.6093 29.4775C27.6915 29.0296 28.6165 28.2711 29.2673 27.2979C29.9181 26.3247 30.2654 25.1805 30.2654 24.0101C30.2654 22.4405 29.6414 20.9353 28.5307 19.8255C27.42 18.7156 25.9135 18.0921 24.3428 18.0921ZM24.3428 27.7619C23.5731 27.7617 22.821 27.5322 22.1825 27.1028C21.544 26.6733 21.0481 26.0634 20.7581 25.351C20.4682 24.6386 20.3974 23.8559 20.5548 23.1031C20.7121 22.3503 21.0906 21.6615 21.6416 21.1246C22.1927 20.5877 22.8915 20.2271 23.6487 20.089C24.4058 19.9508 25.187 20.0414 25.8924 20.349C26.5979 20.6567 27.1955 21.1674 27.609 21.8161C28.0225 22.4647 28.233 23.2219 28.2138 23.9907C28.1935 25.0031 27.7768 25.9671 27.053 26.6759C26.3292 27.3846 25.3561 27.7815 24.3428 27.7813V27.7619Z" fill="#C92F23"/>
<path d="M29.0461 36H19.4655C17.5508 36 15.7145 35.24 14.3606 33.8872C13.0067 32.5344 12.2461 30.6996 12.2461 28.7864V19.2136C12.2512 17.302 13.0135 15.4702 14.3663 14.1185C15.7191 12.7668 17.5524 12.0051 19.4655 12H29.0461C30.9574 12.0051 32.7888 12.7674 34.1385 14.1197C35.4882 15.4719 36.2461 17.3038 36.2461 19.2136V28.7864C36.2461 30.6962 35.4882 32.5282 34.1385 33.8804C32.7888 35.2326 30.9574 35.9949 29.0461 36ZM19.4655 14.2627C18.1514 14.2627 16.891 14.7843 15.9618 15.7127C15.0326 16.6412 14.5106 17.9005 14.5106 19.2136V28.7864C14.5106 30.0995 15.0326 31.3588 15.9618 32.2873C16.891 33.2157 18.1514 33.7373 19.4655 33.7373H29.0461C30.3602 33.7373 31.6205 33.2157 32.5497 32.2873C33.4789 31.3588 34.001 30.0995 34.001 28.7864V19.2136C34.001 17.9005 33.4789 16.6412 32.5497 15.7127C31.6205 14.7843 30.3602 14.2627 29.0461 14.2627H19.4655Z" fill="#C92F23"/>
</svg>
