<svg width="48" height="48" viewBox="0 0 48 48" fill="none" xmlns="http://www.w3.org/2000/svg">
<path d="M41.6288 15.7403C41.4231 15.0146 41.018 14.3528 40.4544 13.8217C39.8907 13.2906 39.1883 12.9089 38.4181 12.7151C28.9622 11.7616 19.4254 11.7616 9.96947 12.7151C9.20105 12.9122 8.50063 13.295 7.93749 13.8257C7.37435 14.3563 6.96803 15.0162 6.75879 15.7403C5.74707 21.1993 5.74707 26.7823 6.75879 32.2414C6.96685 32.968 7.37244 33.6308 7.9355 34.1646C8.49856 34.6983 9.19961 35.0845 9.96947 35.2849C19.4254 36.2384 28.9622 36.2384 38.4181 35.2849C39.1898 35.0879 39.8927 34.7028 40.4563 34.1686C41.02 33.6343 41.4243 32.9696 41.6288 32.2414C42.6405 26.7823 42.6405 21.1993 41.6288 15.7403V15.7403ZM20.5939 29.1428V18.8571L30.0509 23.9908L20.5939 29.1428Z" fill="#C92F23"/>
</svg>
